<svg height="512" viewBox="0 0 50 60" width="512" xmlns="http://www.w3.org/2000/svg"><g id="Page-1" fill="none" fill-rule="evenodd"><g id="043---Calculating-Calories" fill-rule="nonzero"><path id="Shape" d="m49 5v47c0 2.209139-1.790861 4-4 4h-22.35c1.6263741-1.7782474 2.8296998-3.9011601 3.52-6.21.06-.18.11-.36.16-.54.4610543-1.6116666.673499-3.284247.63-4.96-.1-4.33-2.04-7.81-5.18-8.62-1.8179852-.4023333-3.721331-.0173053-5.24 1.06-1.5594669.9900557-3.5505331.9900557-5.11 0-.4509065-.2935481-.9299392-.5414392-1.43-.74v-.11c2.27.39 4.25-.28 4.58-1.59.36-1.44-1.39-3.11-3.91-3.73-.2200501-.0544385-.4440952-.091222-.67-.11v-25.45c0-2.209139 1.790861-4 4-4h31c2.209139 0 4 1.790861 4 4z" fill="#02a9f4"/><path id="Shape" d="m18.78 35.67c-1.8179852-.4023333-3.721331-.0173053-5.24 1.06-.329413.2080145-.6839175.3733379-1.055.492 1.3569745.4531862 2.8457752.2725475 4.055-.492.7172183-.4652259 1.5041258-.8129371 2.331-1.03-.031-.01-.06-.022-.091-.03z" fill="#0377bc"/><path id="Shape" d="m45 1h-3c2.209139 0 4 1.790861 4 4v47c0 2.209139-1.790861 4-4 4h3c2.209139 0 4-1.790861 4-4v-47c0-2.209139-1.790861-4-4-4z" fill="#0377bc"/><path id="Shape" d="m26.96 44.29c.043499 1.675753-.1689457 3.3483334-.63 4.96-.05.18-.1.36-.16.54-.6903002 2.3088399-1.8936259 4.4317526-3.52 6.21-2.17 2.31-4.85 3.46-7.33 2.83-.4648755-.1215602-.9119608-.3030836-1.33-.54-.422352.2352765-.872527.4166903-1.34.54-4.29 1.1-9.22-3.18-11.01-9.58-1.79-6.4.26-12.48 4.56-13.58 1.26751717-.3125298 2.60259917-.2001018 3.8.32.5000608.1985608.9790935.4464519 1.43.74 1.5594669.9900557 3.5505331.9900557 5.11 0 1.518669-1.0773053 3.4220148-1.4623333 5.24-1.06 3.14.81 5.08 4.29 5.18 8.62z" fill="#f44335"/><path id="Shape" d="m21.78 35.67c-.9562332-.2389051-1.9577197-.2289212-2.909.029 3.085.854 4.99 4.3 5.089 8.591.043499 1.675753-.1689457 3.3483334-.63 4.96-.05.18-.1.36-.16.54-.6903002 2.3088399-1.8936259 4.4317526-3.52 6.21-1.1815848 1.3317758-2.7155587 2.302426-4.425 2.8.033.008.063.023.095.031 2.48.63 5.16-.52 7.33-2.83 1.6263741-1.7782474 2.8296998-3.9011601 3.52-6.21.06-.18.11-.36.16-.54.4610543-1.6116666.673499-3.284247.63-4.96-.1-4.331-2.04-7.811-5.18-8.621z" fill="#c81e1e"/><path id="Shape" d="m14.58 34.29c-.33 1.31-2.31 1.98-4.58 1.59-.21-.03-.41-.07-.62-.12-1.74-.43-4.26-2.42-5.64-3.6-.19659547-.164179-.28103703-.4269142-.21690552-.6748894.0641315-.2479751.2653634-.4368292.51690552-.4851106 1.95274631-.4514352 3.95761677-.6364484 5.96-.55.2259048.018778.4499499.0555615.67.11 2.52.62 4.27 2.29 3.91 3.73z" fill="#60a917"/><rect id="Rectangle-path" fill="#ff9801" height="7" rx="2" width="7" x="37" y="44"/><path id="Shape" d="m42 44h-3c1.1045695 0 2 .8954305 2 2v3c0 1.1045695-.8954305 2-2 2h3c1.1045695 0 2-.8954305 2-2v-3c0-1.1045695-.8954305-2-2-2z" fill="#f57c00"/><rect id="Rectangle-path" fill="#ff9801" height="7" rx="2" width="7" x="37" y="33"/><path id="Shape" d="m42 33h-3c1.1045695 0 2 .8954305 2 2v3c0 1.1045695-.8954305 2-2 2h3c1.1045695 0 2-.8954305 2-2v-3c0-1.1045695-.8954305-2-2-2z" fill="#f57c00"/><rect id="Rectangle-path" fill="#ff9801" height="7" rx="2" width="7" x="37" y="22"/><path id="Shape" d="m42 22h-3c1.1045695 0 2 .8954305 2 2v3c0 1.1045695-.8954305 2-2 2h3c1.1045695 0 2-.8954305 2-2v-3c0-1.1045695-.8954305-2-2-2z" fill="#f57c00"/><rect id="Rectangle-path" fill="#ff9801" height="7" rx="2" width="7" x="26" y="33"/><path id="Shape" d="m31 33h-3c1.1045695 0 2 .8954305 2 2v3c0 1.1045695-.8954305 2-2 2h3c1.1045695 0 2-.8954305 2-2v-3c0-1.1045695-.8954305-2-2-2z" fill="#f57c00"/><path id="Shape" d="m26.96 44.29c.314133-.1887736.6735112-.2889849 1.04-.29h3c1.1032019.0032948 1.9967052.8967981 2 2v3c-.0032948 1.1032019-.8967981 1.9967052-2 2h-3c-.7973189-.0003065-1.5174831-.4764806-1.83-1.21" fill="#ff9801"/><path id="Shape" d="m31 44h-3c1.1032019.0032948 1.9967052.8967981 2 2v3c-.0032948 1.1032019-.8967981 1.9967052-2 2h3c1.1032019-.0032948 1.9967052-.8967981 2-2v-3c-.0032948-1.1032019-.8967981-1.9967052-2-2z" fill="#f57c00"/><path id="Shape" d="m24 22h-5.5c-1.9329966 0-3.5 1.5670034-3.5 3.5.0093024 1.9291303 1.5708697 3.4906976 3.5 3.5h11c1.9291303-.0093024 3.4906976-1.5708697 3.5-3.5 0-1.9329966-1.5670034-3.5-3.5-3.5z" fill="#ffdc00"/><path id="Shape" d="m29.5 22h-3c1.9329966 0 3.5 1.5670034 3.5 3.5-.0093024 1.9291303-1.5708697 3.4906976-3.5 3.5h3c1.9291303-.0093024 3.4906976-1.5708697 3.5-3.5 0-1.9329966-1.5670034-3.5-3.5-3.5z" fill="#fec108"/><rect id="Rectangle-path" fill="#00bcd4" height="29" rx="1" transform="matrix(0 1 -1 0 41 -18)" width="11" x="24" y="-3"/><path id="Shape" d="m43 6h-3c.5522847 0 1 .44771525 1 1v9c0 .5522847-.4477153 1-1 1h3c.5522847 0 1-.4477153 1-1v-9c0-.55228475-.4477153-1-1-1z" fill="#00838f"/><path id="Shape" d="m18 18c-.3528216-.0002875-.6793814-.1864787-.8593351-.4899582s-.1866666-.6793297-.0176649-.9890418l6-11c.2645444-.48490601.872094-.6635444 1.357-.399s.6635444.87209399.399 1.357l-6 11c-.1754617.3215515-.5126915.521434-.879.521z" fill="#f5f5f5"/><path id="Shape" d="m24 18c-.3528216-.0002875-.6793814-.1864787-.8593351-.4899582s-.1866666-.6793297-.0176649-.9890418l6-11c.2645444-.48490598.872094-.66354434 1.357-.39899995.484906.26454438.6635444.87209394.399 1.35699995l-6 11c-.1754617.3215515-.5126915.521434-.879.521z" fill="#f5f5f5"/><path id="Shape" d="m5.5 49.177c-.44891512-.0001881-.84269078-.2995066-.963-.732-1.023-3.672-.42-6.655.486-8.222.38766547-.7894092 1.08197101-1.385406 1.921-1.649.53516392-.1380712 1.08092881.1838361 1.219.719s-.18383608 1.0809288-.719 1.219c-.30583649.1483534-.54923177.4002516-.687.711-.9326407 2.1128191-1.03651751 4.4991301-.291 6.685.08426526.3017023.02228759.6254579-.1674483.8747072s-.48530398.395189-.7985517.3942928z" fill="#f5f5f5"/><g fill="#000"><path id="Shape" d="m26 56c0 .5522847.4477153 1 1 1h18c2.7600532-.0033061 4.9966939-2.2399468 5-5v-47c-.0033061-2.76005315-2.2399468-4.99669388-5-5h-31c-2.7600532.00330612-4.99669388 2.23994685-5 5v22c0 .5522847.44771525 1 1 1 .5522847 0 1-.4477153 1-1v-22c0-1.65685425 1.3431458-3 3-3h31c1.6568542 0 3 1.34314575 3 3v47c0 1.6568542-1.3431458 3-3 3h-18c-.5522847 0-1 .4477153-1 1z"/><path id="Shape" d="m11.3 60c.9292248-.0006809 1.8473939-.201573 2.692-.589.349158.1611797.7123408.290051 1.085.385 4.811 1.241 10.3-3.365 12.22-10.274 1.15-4.131.823-8.355-.876-11.3-.9203431-1.7259617-2.5082067-2.9989996-4.393-3.522-2.0874257-.4773598-4.2793643-.0439174-6.028 1.192-.2752527.174787-.5729751.3113692-.885.406.636-4.21 3.54-5.3 3.689-5.352.504982-.189341.7688531-.7450116.5964473-1.2560234s-.7189734-.7932557-1.2354473-.6379766c-1.3796595.555281-2.5645656 1.5057106-3.406 2.732-.1145589-.1371045-.2367526-.2676448-.366-.391-.9875149-.8881839-2.1852759-1.5097806-3.48-1.806-1.834-.453-4.861-.018-7.077.43-.62709722.1267306-1.12667666.6005871-1.2863491 1.2201162-.15967245.6195291.04862947 1.2758293.5363491 1.6898838.721.613 1.568 1.288 2.441 1.905-1.69981849.5957483-3.11595832 1.8046916-3.971 3.39-1.7 2.942-2.026 7.166-.875 11.3 1.719 6.147 6.245 10.478 10.619 10.478zm-.862-28.469c.9558137.2157278 1.8426352.6667006 2.58 1.312.453.432.677.884.6 1.206s-.487.616-1.09.787c-.9536942.2262801-1.9487995.2108122-2.895-.045-1.74013883-.6787403-3.33820398-1.6765135-4.712-2.942 1.8035032-.4347537 3.67022263-.543465 5.512-.321zm-7.149 7.691c.65470726-1.2564036 1.79510214-2.1901109 3.156-2.584.37138587-.0957763.75346398-.1438301 1.137-.143 1.18336363.0338888 2.33187719.4081626 3.308 1.078.6392035.406897 1.3531198.6822647 2.1.81v1.606c0 .5522847.4477153 1 1 1s1-.4477153 1-1v-1.606c.7471532-.1267427 1.4612607-.4021841 2.1-.81 1.2823922-.9279578 2.8984645-1.26782 4.446-.935 1.3605795.394024 2.5006136 1.3277318 3.155 2.584 1.436 2.487 1.691 6.135.681 9.759-1.633 5.867-6.026 9.856-9.8 8.874-.3813772-.097256-.7479811-.2452429-1.09-.44-.3047945-.1717872-.6772055-.1717872-.982 0-.3434049.1952937-.7113121.3439363-1.094.442-3.766.974-8.16-3.008-9.794-8.876-1.012-3.624-.759-7.272.677-9.759z"/><path id="Shape" d="m42 43h-3c-1.6568542 0-3 1.3431458-3 3v3c0 1.6568542 1.3431458 3 3 3h3c1.6568542 0 3-1.3431458 3-3v-3c0-1.6568542-1.3431458-3-3-3zm1 6c0 .5522847-.4477153 1-1 1h-3c-.5522847 0-1-.4477153-1-1v-3c0-.5522847.4477153-1 1-1h3c.5522847 0 1 .4477153 1 1z"/><path id="Shape" d="m45 35c0-1.6568542-1.3431458-3-3-3h-3c-1.6568542 0-3 1.3431458-3 3v3c0 1.6568542 1.3431458 3 3 3h3c1.6568542 0 3-1.3431458 3-3zm-2 3c0 .5522847-.4477153 1-1 1h-3c-.5522847 0-1-.4477153-1-1v-3c0-.5522847.4477153-1 1-1h3c.5522847 0 1 .4477153 1 1z"/><path id="Shape" d="m45 24c0-1.6568542-1.3431458-3-3-3h-3c-1.6568542 0-3 1.3431458-3 3v3c0 1.6568542 1.3431458 3 3 3h3c1.6568542 0 3-1.3431458 3-3zm-2 3c0 .5522847-.4477153 1-1 1h-3c-.5522847 0-1-.4477153-1-1v-3c0-.5522847.4477153-1 1-1h3c.5522847 0 1 .4477153 1 1z"/><path id="Shape" d="m31 50h-1.02c-.5522847 0-1 .4477153-1 1s.4477153 1 1 1h1.02c1.6568542 0 3-1.3431458 3-3v-3c0-1.6568542-1.3431458-3-3-3h-.04c-.2631596.0007638-.5150246.1070133-.6992183.2949661-.1841937.1879527-.2853339.4419126-.2807817.7050339.0092959.5561932.4637318 1.0017186 1.02 1 .5522847 0 1 .4477153 1 1v3c0 .2652165-.1053568.5195704-.2928932.7071068s-.4418903.2928932-.7071068.2928932z"/><path id="Shape" d="m27.258 34.342c.185255-.2172397.4564962-.3422592.742-.342h3c.5522847 0 1 .4477153 1 1v3c0 .5522847-.4477153 1-1 1h-.63c-.5522847 0-1 .4477153-1 1s.4477153 1 1 1h.63c1.6568542 0 3-1.3431458 3-3v-3c0-1.6568542-1.3431458-3-3-3h-3c-.8786712-.0029658-1.7131184.3851236-2.277 1.059-.3542907.4238785-.2978785 1.0547093.126 1.409s1.0547093.2978785 1.409-.126z"/><path id="Shape" d="m29.5 28h-7.5c-.5522847 0-1 .4477153-1 1s.4477153 1 1 1h7.5c2.4818637-.0082318 4.4917682-2.0181363 4.5-4.5-.0027556-2.4841391-2.0158609-4.4972444-4.5-4.5h-11c-1.5756402-.0038303-3.0379355.818713-3.8528698 2.1672451-.8149343 1.348532-.8631846 3.0256-.1271302 4.4187549.2626114.4860106.8694894.6671114 1.3555.4045s.6671114-.8694894.4045-1.3555c-.1858485-.3493221-.2820599-.7393216-.28-1.135.0087298-1.3770797 1.1229203-2.4912702 2.5-2.5h11c1.3807119 0 2.5 1.1192881 2.5 2.5-.0087298 1.3770797-1.1229203 2.4912702-2.5 2.5z"/><path id="Shape" d="m45 7c0-1.1045695-.8954305-2-2-2h-27c-1.1045695 0-2 .8954305-2 2v9c0 1.1045695.8954305 2 2 2h27c1.1045695 0 2-.8954305 2-2zm-2 9h-27v-9h27z"/></g></g></g></svg>